<svg width="64" height="64" viewBox="0 0 64 64" fill="none" xmlns="http://www.w3.org/2000/svg">
<path d="M0 16C0 7.16344 7.16344 0 16 0H48C56.8366 0 64 7.16344 64 16V48C64 56.8366 56.8366 64 48 64H16C7.16344 64 0 56.8366 0 48V16Z" fill="#1E3101"/>
<g clip-path="url(#clip0_204_2688)">
<path d="M52.3289 1H11.2607C5.04157 1 0 6.04157 0 12.2607V51.7393C0 57.9584 5.04157 63 11.2607 63H52.3289C58.548 63 63.5895 57.9584 63.5895 51.7393V12.2607C63.5895 6.04157 58.548 1 52.3289 1Z" fill="#1E3101"/>
<path d="M11.6827 44.3935V17.2625C11.6786 17.2218 11.6826 17.1807 11.6944 17.1416C11.7062 17.1024 11.7257 17.066 11.7516 17.0344C11.7776 17.0028 11.8095 16.9767 11.8456 16.9575C11.8817 16.9383 11.9212 16.9264 11.9619 16.9225H11.9818C12.4074 16.8939 13.034 16.8729 13.8579 16.858C14.6818 16.8431 15.6497 16.8307 16.759 16.8158C17.8683 16.8009 19.0484 16.7947 20.2991 16.7947C23.7123 16.7947 26.5422 17.3775 28.789 18.543C30.9183 19.5982 32.68 21.2709 33.8442 23.3426C34.9676 25.3759 35.5288 27.7149 35.528 30.3596C35.5626 32.2096 35.2685 34.051 34.6594 35.7982C34.1223 37.2938 33.3091 38.6752 32.2621 39.8706C31.2734 40.9911 30.1143 41.9488 28.8275 42.7085C27.5516 43.4608 26.1719 44.0211 24.7327 44.3712C23.3234 44.7221 21.8768 44.9012 20.4245 44.9047H17.2479C16.1254 44.9047 15.0806 44.8977 14.1135 44.8837C13.1465 44.8696 12.421 44.8481 11.9371 44.8191C11.7683 44.8191 11.6827 44.6777 11.6827 44.3935ZM17.5693 22.0397V39.7007C17.882 39.7007 18.1665 39.7077 18.423 39.7217L19.2122 39.7639C19.4814 39.7788 19.7879 39.7863 20.1291 39.7863C21.4195 39.8024 22.7032 39.6001 23.9261 39.1882C25.0211 38.8165 26.0191 38.2047 26.8471 37.3976C27.681 36.5655 28.3219 35.5603 28.7245 34.4531C29.1836 33.1805 29.4077 31.8351 29.3858 30.4824C29.4119 29.2089 29.1946 27.942 28.7456 26.75C28.3457 25.7214 27.7104 24.8009 26.8905 24.0623C26.0523 23.3239 25.0618 22.7791 23.9894 22.4666C22.7912 22.1152 21.5477 21.9429 20.2991 21.9553C19.7308 21.9553 19.2544 21.9616 18.8709 21.9764C18.4875 21.9913 18.0532 22.0124 17.5693 22.0397Z" fill="#99E83F"/>
<path d="M52.293 29.1671C51.4923 28.7547 50.6396 28.4525 49.7579 28.2687C48.7843 28.0448 47.7889 27.93 46.7898 27.9262C46.2498 27.9124 45.7106 27.9772 45.1892 28.1186C44.8579 28.193 44.5634 28.3819 44.3578 28.6521C44.2186 28.8682 44.1445 29.1198 44.1444 29.3768C44.1526 29.6261 44.2424 29.8658 44.4 30.0592C44.6495 30.3506 44.9539 30.5901 45.2959 30.764C45.9044 31.0895 46.5312 31.3796 47.1733 31.6326C48.6051 32.114 49.973 32.7678 51.247 33.5795C52.1152 34.1269 52.8337 34.8817 53.3378 35.7758C53.7619 36.6223 53.9748 37.559 53.9582 38.5057C53.9842 39.7561 53.6269 40.9845 52.9345 42.0259C52.1934 43.0827 51.1646 43.9044 49.9701 44.3935C48.6706 44.9618 47.0695 45.2459 45.1668 45.2459C43.9587 45.258 42.7527 45.1436 41.5684 44.9047C40.6742 44.7358 39.8063 44.4492 38.9874 44.0522C38.8943 44.0038 38.8169 43.93 38.7641 43.8392C38.7114 43.7485 38.6856 43.6446 38.6896 43.5398V38.9325C38.6842 38.8874 38.6913 38.8417 38.7102 38.8003C38.729 38.759 38.7588 38.7236 38.7963 38.698C38.833 38.6775 38.875 38.6685 38.9169 38.6723C38.9587 38.676 38.9984 38.6923 39.0308 38.7191C40.0062 39.3208 41.0727 39.7603 42.1888 40.0207C43.2037 40.2752 44.2447 40.411 45.2909 40.4252C46.2836 40.4252 47.0161 40.2974 47.4884 40.0418C47.7004 39.9447 47.8796 39.7882 48.0045 39.5914C48.1294 39.3945 48.1945 39.1656 48.192 38.9325C48.192 38.5644 47.979 38.2091 47.553 37.8666C47.1269 37.5242 46.2584 37.1105 44.9472 36.6258C43.608 36.1595 42.3382 35.5138 41.1725 34.7062C40.3391 34.1257 39.6525 33.3588 39.1673 32.4665C38.747 31.6261 38.5342 30.6972 38.5469 29.7577C38.5501 28.6285 38.8657 27.5222 39.4589 26.5613C40.1291 25.5006 41.0918 24.6564 42.231 24.1305C43.4818 23.5051 45.046 23.1924 46.9239 23.1924C48.0232 23.183 49.1215 23.2614 50.2084 23.4269C50.9739 23.5259 51.7212 23.7349 52.427 24.0474C52.4849 24.064 52.5381 24.0938 52.5824 24.1345C52.6268 24.1752 52.6611 24.2256 52.6826 24.2819C52.7115 24.3861 52.7257 24.4939 52.7248 24.602V28.9102C52.7282 28.9601 52.7186 29.0101 52.6968 29.0551C52.6751 29.1001 52.6419 29.1387 52.6007 29.1671C52.555 29.1971 52.5015 29.2131 52.4469 29.2131C52.3922 29.2131 52.3387 29.1971 52.293 29.1671Z" fill="#99E83F"/>
</g>
<defs>
<clipPath id="clip0_204_2688">
<rect width="63.5895" height="62" fill="white" transform="translate(0 1)"/>
</clipPath>
</defs>
</svg>
