<svg width="64" height="64" viewBox="0 0 64 64" fill="none" xmlns="http://www.w3.org/2000/svg">
<g clip-path="url(#clip0_204_2677)">
<path d="M0 16C0 7.16344 7.16344 0 16 0H48C56.8366 0 64 7.16344 64 16V48C64 56.8366 56.8366 64 48 64H16C7.16344 64 0 56.8366 0 48V16Z" fill="#1E3101"/>
<g clip-path="url(#clip1_204_2677)">
<path d="M11.4425 1H53.1734C54.6764 0.998675 56.1649 1.29374 57.5538 1.8683C58.9427 2.44287 60.2046 3.28567 61.2674 4.34847C62.3302 5.41126 63.173 6.6732 63.7476 8.06207C64.3221 9.45094 64.6172 10.9395 64.6159 12.4425V52.5575C64.6172 54.0605 64.3221 55.5491 63.7476 56.9379C63.173 58.3268 62.3302 59.5887 61.2674 60.6516C60.2046 61.7143 58.9427 62.5571 57.5538 63.1317C56.1649 63.7063 54.6764 64.0013 53.1734 64H11.4425C9.93947 64.0013 8.45093 63.7063 7.06207 63.1317C5.6732 62.5571 4.41126 61.7143 3.34847 60.6516C2.28567 59.5887 1.44287 58.3268 0.868304 56.9379C0.293736 55.5491 -0.0013249 54.0605 4.47208e-06 52.5575V12.4425C-0.0013249 10.9395 0.293736 9.45094 0.868304 8.06207C1.44287 6.6732 2.28567 5.41126 3.34847 4.34847C4.41126 3.28567 5.6732 2.44287 7.06207 1.8683C8.45093 1.29374 9.93947 0.998675 11.4425 1Z" fill="#1E3101"/>
<path d="M20.214 45.9613C18.7411 45.9769 17.2705 45.8419 15.825 45.5583C14.6828 45.3431 13.5709 44.9901 12.5137 44.5071C12.2711 44.3998 12.1637 44.1572 12.1637 43.7807V38.6109C12.1616 38.5651 12.1702 38.5194 12.1888 38.4776C12.2075 38.4357 12.2357 38.3987 12.2711 38.3696C12.314 38.3478 12.3623 38.3388 12.4102 38.3435C12.4581 38.3482 12.5036 38.3664 12.5415 38.3961C13.7377 39.1414 15.0339 39.7127 16.391 40.0929C17.6859 40.4685 19.0275 40.6586 20.3757 40.6576C22.0181 40.6576 23.2019 40.415 23.9031 39.8996C24.2249 39.7019 24.4908 39.4251 24.6755 39.0956C24.8602 38.7661 24.9574 38.3948 24.958 38.0171C24.963 37.5535 24.842 37.0972 24.6081 36.6969C24.2867 36.2331 23.8745 35.8394 23.3965 35.5396C22.6378 35.0733 21.8335 34.6855 20.9961 34.3824L18.8458 33.4689C17.096 32.7109 15.6962 31.9074 14.6993 31.0685C13.79 30.3467 13.0849 29.3999 12.6539 28.3219C12.2767 27.3051 12.085 26.229 12.0879 25.1445C12.0633 23.6126 12.4892 22.1071 13.3125 20.815C14.1359 19.5229 15.3206 18.5011 16.7195 17.8762C18.2532 17.1485 20.1647 16.772 22.454 16.772C23.7509 16.7692 25.0463 16.8604 26.3301 17.0449C27.3304 17.1614 28.3043 17.4436 29.2119 17.88C29.3107 17.9352 29.3913 18.0181 29.4438 18.1184C29.4963 18.2187 29.5184 18.3321 29.5075 18.4448V23.3454C29.5038 23.3893 29.4897 23.4316 29.4664 23.469C29.4431 23.5063 29.4113 23.5376 29.3736 23.5602C29.2649 23.6145 29.1575 23.5337 29.0767 23.5059L28.5928 23.2646C28.2694 23.1294 27.9459 22.9955 27.596 22.8603C27.2726 22.7529 26.9226 22.6443 26.5726 22.5369C26.4109 22.4838 26.2227 22.456 26.061 22.4029C24.8787 22.1294 23.6673 22.0021 22.454 22.0239C21.7389 22.0143 21.025 22.0868 20.3265 22.24C19.8363 22.3507 19.3647 22.5319 18.9266 22.7782C18.5812 22.971 18.3004 23.2615 18.1193 23.6133C17.9518 23.9286 17.8597 24.2784 17.8502 24.6354C17.8514 25.0768 17.9833 25.5081 18.2292 25.8747C18.5815 26.3185 19.0215 26.685 19.5217 26.9511C20.3343 27.4146 21.1701 27.8363 22.0257 28.2145L23.6403 28.8336C25.5518 29.6144 27.0338 30.4482 28.1102 31.3376C29.0793 32.0965 29.8544 33.0746 30.3716 34.1916C30.8002 35.2459 31.0186 36.3737 31.0147 37.5118C31.0409 39.1175 30.5609 40.6906 29.6427 42.0082C28.6741 43.3235 27.3631 44.3478 25.8525 44.9695C24.339 45.6113 22.4262 45.9613 20.214 45.9613Z" fill="#99E83F"/>
<path d="M43.4276 23.5615C45.5539 23.5615 47.3037 23.9405 48.5961 24.7188C49.8732 25.4567 50.8965 26.5646 51.531 27.8962C52.1765 29.2966 52.4987 30.8243 52.4734 32.3661V40.7385C52.4734 41.2767 52.4734 41.8149 52.5 42.3001C52.5265 42.7852 52.5265 43.2956 52.5543 43.8073C52.5543 43.9159 52.5265 43.9968 52.4734 44.0233C51.181 44.5072 50.0237 44.9077 49.0004 45.1806C48.0375 45.4541 47.0569 45.6609 46.0656 45.7996C45.0563 45.9222 44.0399 45.9762 43.0233 45.9614C41.5236 45.9872 40.0331 45.7221 38.6343 45.1806C37.3707 44.6954 36.2698 43.8634 35.4582 42.7802C34.6496 41.7025 34.2466 40.357 34.2466 38.7146C34.2466 37.153 34.6774 35.8606 35.51 34.8107C36.4335 33.7163 37.6469 32.9045 39.0108 32.4684C40.6424 31.9274 42.3531 31.6635 44.0719 31.6876H45.66C45.9839 31.6788 46.308 31.6965 46.629 31.7407V31.4716C46.5851 30.8345 46.3165 30.2337 45.871 29.7761C45.5114 29.4522 45.0897 29.2046 44.6316 29.0484C43.9357 28.8395 43.2098 28.7485 42.4839 28.7793C41.4353 28.7696 40.3887 28.8691 39.3608 29.0762C38.453 29.2561 37.5679 29.5357 36.7216 29.91C36.634 29.9378 36.54 29.9378 36.4525 29.91C36.4122 29.8905 36.3782 29.86 36.3545 29.822C36.3308 29.784 36.3183 29.74 36.3185 29.6953V25.3391C36.3081 25.2371 36.3314 25.1344 36.3847 25.0468C36.4381 24.9592 36.5187 24.8915 36.6142 24.854C37.6465 24.3978 38.7317 24.0723 39.8446 23.8849C41.027 23.6713 42.2261 23.5631 43.4276 23.5615ZM46.6303 40.9002V36.2965C46.2803 36.2421 45.9582 36.1891 45.6347 36.1613C45.3113 36.1335 44.9348 36.1082 44.4775 36.1082C42.9159 36.1082 41.8117 36.3495 41.1649 36.8081C40.8575 37.0214 40.608 37.3077 40.4388 37.6414C40.2696 37.9751 40.1862 38.3456 40.1959 38.7196C40.1973 39.1686 40.3289 39.6074 40.5749 39.983C40.8751 40.4116 41.2972 40.7399 41.7865 40.9255C42.4682 41.2001 43.1997 41.3292 43.9342 41.3045C44.4299 41.3086 44.9251 41.2723 45.4149 41.1959C45.7965 41.115 46.2273 41.0076 46.6303 40.9002Z" fill="#99E83F"/>
</g>
</g>
<defs>
<clipPath id="clip0_204_2677">
<path d="M0 16C0 7.16344 7.16344 0 16 0H48C56.8366 0 64 7.16344 64 16V48C64 56.8366 56.8366 64 48 64H16C7.16344 64 0 56.8366 0 48V16Z" fill="white"/>
</clipPath>
<clipPath id="clip1_204_2677">
<rect width="64.6159" height="63" fill="white" transform="translate(0 1)"/>
</clipPath>
</defs>
</svg>
