<svg width="64" height="64" viewBox="0 0 64 64" fill="none" xmlns="http://www.w3.org/2000/svg">
<g clip-path="url(#clip0_204_2703)">
<path d="M0 16C0 7.16344 7.16344 0 16 0H48C56.8366 0 64 7.16344 64 16V48C64 56.8366 56.8366 64 48 64H16C7.16344 64 0 56.8366 0 48V16Z" fill="#00005B"/>
<g clip-path="url(#clip1_204_2703)">
<path d="M54.0169 1H11.6239C5.2042 1 0 6.2042 0 12.6239V53.3761C0 59.7958 5.2042 65 11.6239 65H54.0169C60.4366 65 65.6408 59.7958 65.6408 53.3761V12.6239C65.6408 6.2042 60.4366 1 54.0169 1Z" fill="#00005B"/>
<path d="M26.3707 39.2903H16.198L14.1281 45.7318C14.1011 45.8496 14.0333 45.9541 13.9367 46.0268C13.8402 46.0994 13.721 46.1356 13.6004 46.1289H8.45383C8.16051 46.1289 8.05804 45.9662 8.14642 45.6435L16.9537 20.3847C17.0408 20.1208 17.1292 19.8621 17.2175 19.5252C17.3329 18.9374 17.3917 18.34 17.393 17.741C17.3832 17.6695 17.402 17.597 17.4455 17.5394C17.4889 17.4818 17.5534 17.4437 17.6249 17.4336C17.6503 17.4297 17.6762 17.4297 17.7017 17.4336H24.703C24.9079 17.4336 25.0257 17.5066 25.0552 17.6539L35.046 45.6883C35.1314 45.982 35.0434 46.1289 34.7821 46.1289H29.0566C28.9583 46.1395 28.8594 46.1141 28.7784 46.0573C28.6973 46.0006 28.6396 45.9163 28.616 45.8202L26.3707 39.2903ZM17.7888 33.8595H24.7465C24.5697 33.2728 24.364 32.6123 24.1291 31.8779C23.8943 31.1436 23.645 30.3584 23.3811 29.5224L22.5882 27.0119C22.3244 26.1759 22.0823 25.3686 21.862 24.5898C21.6417 23.811 21.4419 23.0993 21.2625 22.4546H21.2177C20.9705 23.6439 20.6618 24.8196 20.2929 25.977C19.8822 27.2988 19.4638 28.6493 19.0377 30.0284C18.6116 31.4074 18.1936 32.6845 17.7837 33.8595H17.7888Z" fill="#9999FF"/>
<path d="M51.2504 36.7837H42.575C42.6811 37.6419 42.966 38.4684 43.4114 39.2097C43.904 39.9435 44.6003 40.5173 45.4147 40.8607C46.5191 41.3386 47.7135 41.5727 48.9166 41.5472C49.8707 41.529 50.8211 41.4244 51.7563 41.2347C52.593 41.1207 53.4127 40.9056 54.1977 40.5943C54.3445 40.4781 54.418 40.5516 54.418 40.8146V44.9979C54.4313 45.1023 54.4133 45.2083 54.3664 45.3025C54.3194 45.3966 54.2455 45.4748 54.1541 45.5269C53.2829 45.9124 52.3661 46.1853 51.4258 46.339C50.1487 46.5795 48.8506 46.6902 47.5512 46.6694C45.466 46.6694 43.7193 46.3467 42.3112 45.7011C40.9795 45.1143 39.8032 44.2249 38.8759 43.1035C38.011 42.0468 37.3673 40.8272 36.9828 39.5171C36.6027 38.2225 36.4099 36.8802 36.4102 35.531C36.4065 34.0583 36.6369 32.5943 37.0929 31.194C37.5329 29.8279 38.2284 28.5578 39.1423 27.4513C40.0433 26.3574 41.1702 25.4713 42.4457 24.8536C43.7368 24.2222 45.2636 23.9955 47.0248 23.9955C48.4857 23.9594 49.9367 24.2454 51.2747 24.8332C52.3994 25.3123 53.3893 26.06 54.1579 27.0106C54.8798 27.9414 55.4314 28.9926 55.7872 30.1155C56.1342 31.1974 56.3126 32.3262 56.3162 33.4624C56.3162 34.1079 56.294 34.695 56.2496 35.2236C56.2061 35.7513 56.1689 36.133 56.1407 36.3687C56.1289 36.4657 56.082 36.5551 56.0088 36.6199C55.9357 36.6848 55.8414 36.7207 55.7437 36.7209C55.5678 36.7209 55.2668 36.7427 54.8407 36.7862C54.4154 36.8311 53.8864 36.8593 53.2562 36.8746C52.626 36.89 51.9549 36.7837 51.2504 36.7837ZM42.575 32.772H48.339C49.0434 32.772 49.5643 32.7647 49.9016 32.7502C50.128 32.7275 50.3466 32.6554 50.542 32.5389V32.2737C50.5327 31.9296 50.4732 31.5887 50.3653 31.2618C50.1279 30.5104 49.6502 29.8577 49.0057 29.4041C48.3612 28.9505 47.5856 28.7212 46.7981 28.7513C46.0571 28.7069 45.3191 28.8789 44.6742 29.2464C44.0292 29.6139 43.505 30.1611 43.1655 30.8212C42.8656 31.4357 42.6662 32.0943 42.575 32.772Z" fill="#9999FF"/>
</g>
</g>
<defs>
<clipPath id="clip0_204_2703">
<path d="M0 16C0 7.16344 7.16344 0 16 0H48C56.8366 0 64 7.16344 64 16V48C64 56.8366 56.8366 64 48 64H16C7.16344 64 0 56.8366 0 48V16Z" fill="white"/>
</clipPath>
<clipPath id="clip1_204_2703">
<rect width="65.6408" height="64" fill="white" transform="translate(0 1)"/>
</clipPath>
</defs>
</svg>
