<svg width="64" height="64" viewBox="0 0 64 64" fill="none" xmlns="http://www.w3.org/2000/svg">
<path d="M0 16C0 7.16344 7.16344 0 16 0H48C56.8366 0 64 7.16344 64 16V48C64 56.8366 56.8366 64 48 64H16C7.16344 64 0 56.8366 0 48V16Z" fill="#1E3101"/>
<g clip-path="url(#clip0_204_2693)">
<path d="M52.3287 1H11.2612C5.04179 1 0 6.04179 0 12.2612V51.7388C0 57.9582 5.04179 63 11.2612 63H52.3287C58.548 63 63.5898 57.9582 63.5898 51.7388V12.2612C63.5898 6.04179 58.548 1 52.3287 1Z" fill="#1E3101"/>
<path d="M28.6179 38.0944H18.7577L16.7534 44.3343C16.7261 44.4478 16.6601 44.5483 16.5667 44.6184C16.4733 44.6885 16.3585 44.724 16.2418 44.7186H11.2573C10.9726 44.7186 10.8729 44.5612 10.9582 44.249L19.4844 19.7788C19.5697 19.523 19.6549 19.2738 19.7467 18.9458C19.859 18.3768 19.9165 17.7983 19.9186 17.2183C19.9134 17.184 19.9151 17.149 19.9235 17.1153C19.9319 17.0817 19.9469 17.05 19.9677 17.0222C19.9884 16.9944 20.0144 16.971 20.0443 16.9533C20.0742 16.9356 20.1072 16.924 20.1416 16.9192C20.1664 16.9166 20.1915 16.9166 20.2163 16.9192H26.9993C27.1973 16.9192 27.3115 16.9914 27.3403 17.133L37.0235 44.2857C37.1109 44.5699 37.0235 44.7125 36.7611 44.7134H31.2191C31.1238 44.724 31.0279 44.6995 30.9494 44.6444C30.8709 44.5893 30.8152 44.5075 30.7928 44.4143L28.6179 38.0944ZM20.299 32.8331H27.0386C26.8681 32.2638 26.6692 31.6236 26.4418 30.9127C26.2144 30.2017 25.9726 29.4409 25.7164 28.6303L24.949 26.1997C24.6937 25.389 24.4589 24.6068 24.2447 23.853C24.0304 23.0992 23.8385 22.4097 23.6688 21.7844H23.6268C23.3866 22.9358 23.0876 24.0741 22.7309 25.1949C22.3322 26.4742 21.9268 27.782 21.515 29.1183C21.1031 30.4545 20.6977 31.6919 20.299 32.8304V32.8331Z" fill="#99E83F"/>
<path d="M39.8372 23.521H44.486C44.6124 23.5222 44.735 23.5646 44.8351 23.6418C44.9352 23.7189 45.0075 23.8266 45.0408 23.9486C45.1409 24.17 45.2128 24.4031 45.2546 24.6425C45.3154 24.9167 45.3592 25.1945 45.3858 25.4741C45.4147 25.7732 45.4278 26.0919 45.4291 26.4343C46.2263 25.5059 47.1877 24.7322 48.2651 24.1519C49.421 23.4974 50.7317 23.1658 52.0599 23.1917C52.1491 23.1793 52.2395 23.2027 52.3115 23.2568C52.3835 23.3109 52.4312 23.3912 52.4442 23.4803C52.4481 23.5121 52.4481 23.5442 52.4442 23.576V28.7377C52.4442 28.9371 52.3012 29.0354 52.0166 29.0354C51.1313 28.9748 50.2419 29.0397 49.3748 29.2283C48.6115 29.3792 47.8675 29.6151 47.1566 29.9314C46.5441 30.216 45.8961 30.5439 45.555 30.9125V44.3341C45.555 44.5899 45.4409 44.7184 45.214 44.7184H40.2294C40.1305 44.7323 40.0301 44.7064 39.9502 44.6464C39.8703 44.5864 39.8174 44.4973 39.8031 44.3984C39.7979 44.3627 39.7979 44.3265 39.8031 44.2908V29.7189C39.8031 29.0927 39.7961 28.4316 39.7821 27.7355C39.7681 27.0394 39.7437 26.3477 39.7087 25.6604C39.6893 25.0423 39.6323 24.426 39.5381 23.8148C39.5274 23.7734 39.5277 23.73 39.5389 23.6887C39.5501 23.6475 39.5719 23.6099 39.6021 23.5797C39.6323 23.5495 39.6699 23.5277 39.7112 23.5164C39.7524 23.5052 39.7959 23.505 39.8372 23.5157V23.521Z" fill="#99E83F"/>
</g>
<defs>
<clipPath id="clip0_204_2693">
<rect width="63.5898" height="62" fill="white" transform="translate(0 1)"/>
</clipPath>
</defs>
</svg>
