<svg width="64" height="64" viewBox="0 0 64 64" fill="none" xmlns="http://www.w3.org/2000/svg">
<g clip-path="url(#clip0_204_2698)">
<path d="M0 16C0 7.16344 7.16344 0 16 0H48C56.8366 0 64 7.16344 64 16V48C64 56.8366 56.8366 64 48 64H16C7.16344 64 0 56.8366 0 48V16Z" fill="#1E3101"/>
<g clip-path="url(#clip1_204_2698)">
<path d="M53.1734 1H11.4425C5.12298 1 0 6.12298 0 12.4425V52.5575C0 58.877 5.12298 64 11.4425 64H53.1734C59.4929 64 64.6159 58.877 64.6159 52.5575V12.4425C64.6159 6.12298 59.4929 1 53.1734 1Z" fill="#1E3101"/>
<path d="M9.41714 45.0922V17.5251C9.41295 17.4838 9.41695 17.4421 9.42891 17.4023C9.44087 17.3625 9.46056 17.3255 9.48684 17.2933C9.51313 17.2612 9.5455 17.2345 9.5821 17.2149C9.6187 17.1953 9.65881 17.1831 9.70014 17.179H9.72035C10.1541 17.1512 10.79 17.1297 11.6281 17.1145C12.4661 17.0994 13.4486 17.0846 14.5755 17.0703C15.7025 17.0568 16.9014 17.0497 18.1724 17.0488C21.64 17.0488 24.5154 17.6414 26.7988 18.8264C28.9627 19.8982 30.753 21.5978 31.9357 23.7031C33.0761 25.7683 33.6468 28.1451 33.6476 30.8336C33.6817 32.7134 33.3823 34.5844 32.7632 36.3597C32.2198 37.8794 31.3962 39.2837 30.335 40.4998C29.3308 41.6381 28.1532 42.6107 26.8456 43.3816C25.5492 44.146 24.1474 44.7155 22.6852 45.072C21.2527 45.4282 19.7824 45.6102 18.3063 45.614H15.0733C13.9312 45.614 12.8691 45.6068 11.8871 45.5925C10.9054 45.5773 10.1676 45.5559 9.6774 45.5281C9.50305 45.5268 9.41714 45.3815 9.41714 45.0922ZM15.3993 22.3778V40.3179C15.7164 40.3179 16.0057 40.3242 16.266 40.3393L17.0682 40.3823C17.3424 40.3975 17.6519 40.405 17.9993 40.4038C19.3105 40.421 20.6151 40.2159 21.8577 39.7974C22.9706 39.4193 23.985 38.7973 24.8267 37.9768C25.6738 37.1312 26.3251 36.1099 26.7344 34.9851C27.2001 33.6934 27.4274 32.3278 27.4052 30.9549C27.4319 29.6617 27.2115 28.3753 26.7558 27.1648C26.3494 26.1193 25.7034 25.1837 24.8696 24.4333C24.0187 23.6811 23.0123 23.1259 21.9221 22.8073C20.7046 22.4506 19.4411 22.2756 18.1724 22.2881C17.595 22.2881 17.1099 22.2944 16.7208 22.3096C16.3317 22.3247 15.8895 22.3513 15.3993 22.3791V22.3778Z" fill="#99E83F"/>
<path d="M36.2971 45.1364V29.0118C36.2971 28.5208 36.2899 27.9733 36.2756 27.3694C36.2613 26.7655 36.2394 26.1877 36.2099 25.636C36.1805 25.086 36.1518 24.6523 36.124 24.3347C36.1065 24.2916 36.1013 24.2445 36.1088 24.1986C36.1164 24.1526 36.1365 24.1097 36.167 24.0745C36.2025 24.0436 36.2438 24.0202 36.2885 24.0054C36.3332 23.9907 36.3803 23.9849 36.4272 23.9886H40.9337C41.0829 23.9834 41.2312 24.0128 41.3671 24.0745C41.4247 24.1046 41.4744 24.1478 41.5122 24.2007C41.5499 24.2536 41.5747 24.3147 41.5844 24.379C41.6412 24.552 41.7107 24.7466 41.7789 24.9639C41.8597 25.2247 41.9106 25.4939 41.9305 25.7662C42.7683 25.0311 43.7399 24.4645 44.7921 24.0972C45.8374 23.7346 46.9364 23.5514 48.0428 23.5552C48.9044 23.559 49.76 23.698 50.5784 23.9671C51.5233 24.2691 52.3851 24.7864 53.0959 25.4784C53.8067 26.1703 54.347 27.0179 54.6743 27.9543C55.1072 29.0678 55.3241 30.5055 55.325 32.2675V45.1414C55.325 45.4017 55.2087 45.5318 54.9775 45.5318H49.7345C49.6846 45.5395 49.6338 45.5371 49.5848 45.5249C49.5359 45.5127 49.4899 45.4908 49.4496 45.4605C49.4092 45.4303 49.3753 45.3923 49.3498 45.3488C49.3243 45.3053 49.3078 45.2571 49.3011 45.2071C49.2961 45.1711 49.2961 45.1345 49.3011 45.0985V32.783C49.3267 32.0269 49.1937 31.2738 48.9108 30.5721C48.678 30.0277 48.2945 29.5613 47.8053 29.2278C47.2523 28.8894 46.611 28.7236 45.9633 28.7515C45.2666 28.7416 44.5747 28.8664 43.9254 29.1192C43.3327 29.3566 42.7895 29.7023 42.3235 30.1387V45.1364C42.3235 45.3967 42.2072 45.5268 41.976 45.5268H36.6875C36.6426 45.5332 36.5969 45.5307 36.553 45.5195C36.5091 45.5082 36.4678 45.4884 36.4315 45.4612C36.3953 45.434 36.3647 45.3998 36.3417 45.3608C36.3186 45.3218 36.3035 45.2786 36.2971 45.2337C36.2921 45.2014 36.2921 45.1686 36.2971 45.1364Z" fill="#99E83F"/>
</g>
</g>
<defs>
<clipPath id="clip0_204_2698">
<path d="M0 16C0 7.16344 7.16344 0 16 0H48C56.8366 0 64 7.16344 64 16V48C64 56.8366 56.8366 64 48 64H16C7.16344 64 0 56.8366 0 48V16Z" fill="white"/>
</clipPath>
<clipPath id="clip1_204_2698">
<rect width="64.6159" height="63" fill="white" transform="translate(0 1)"/>
</clipPath>
</defs>
</svg>
