<svg width="64" height="64" viewBox="0 0 64 64" fill="none" xmlns="http://www.w3.org/2000/svg">
<g clip-path="url(#clip0_204_2657)">
<path d="M0 16C0 7.16344 7.16344 0 16 0H48C56.8366 0 64 7.16344 64 16V48C64 56.8366 56.8366 64 48 64H16C7.16344 64 0 56.8366 0 48V16Z" fill="#001E36"/>
<g clip-path="url(#clip1_204_2657)">
<path d="M53.1732 1H11.4417C5.12262 1 0 6.12262 0 12.4417V52.5583C0 58.8774 5.12262 64 11.4417 64H53.1732C59.4923 64 64.6149 58.8774 64.6149 52.5583V12.4417C64.6149 6.12262 59.4923 1 53.1732 1Z" fill="#001E36"/>
<path d="M14.5503 45.1796V17.4807C14.5503 17.2799 14.6362 17.1777 14.8104 17.1777C15.2712 17.1777 15.6942 17.1777 16.3255 17.1562C16.9568 17.1347 17.6475 17.1272 18.3848 17.1133L20.7257 17.0691C21.5489 17.0548 22.365 17.0476 23.1739 17.0476C25.3699 17.0476 27.2218 17.322 28.7293 17.8708C30.0846 18.3302 31.3206 19.0854 32.3479 20.0816C33.219 20.9456 33.8919 21.9886 34.3201 23.1384C34.7252 24.258 34.9299 25.4402 34.9249 26.6307C34.9249 28.9438 34.3904 30.8512 33.3214 32.3529C32.2448 33.861 30.7321 35.0031 28.9869 35.6255C27.1662 36.3048 25.1423 36.5346 22.9175 36.5346C22.2862 36.5346 21.8342 36.5283 21.5741 36.5131C21.314 36.498 20.9239 36.4917 20.4037 36.4917V45.1392C20.4103 45.1841 20.4079 45.2298 20.3968 45.2738C20.3856 45.3178 20.3658 45.3591 20.3386 45.3953C20.3113 45.4316 20.2772 45.4621 20.2381 45.4851C20.199 45.5081 20.1557 45.5232 20.1108 45.5294C20.0786 45.5344 20.0458 45.5344 20.0136 45.5294H14.8533C14.6463 45.5256 14.5503 45.4107 14.5503 45.1796ZM20.4037 22.3796V31.4135C20.7791 31.4429 21.1259 31.4573 21.4441 31.4564H22.8746C23.9272 31.4528 24.9729 31.2858 25.9743 30.9615C26.8327 30.7075 27.6001 30.2123 28.1851 29.5347C28.7482 28.8706 29.0298 27.9447 29.0298 26.757C29.0517 25.9184 28.8326 25.0911 28.3985 24.3732C27.9436 23.6788 27.2858 23.1414 26.5147 22.8341C25.5095 22.4437 24.436 22.2595 23.3582 22.2925C22.6638 22.2925 22.0497 22.2996 21.5161 22.3139C20.9824 22.3282 20.6137 22.3501 20.41 22.3796H20.4037Z" fill="#31A8FF"/>
<path d="M51.6847 29.771C50.8702 29.3519 50.0024 29.0457 49.1052 28.8606C48.117 28.6335 47.1066 28.5171 46.0927 28.5134C45.5444 28.4988 44.9969 28.5647 44.4677 28.7091C44.1305 28.7838 43.8307 28.9757 43.6218 29.2508C43.4805 29.4707 43.4056 29.7267 43.4059 29.9881C43.4135 30.2416 43.505 30.4854 43.6659 30.6813C43.919 30.9775 44.2284 31.2205 44.5763 31.3959C45.1939 31.7276 45.8305 32.0227 46.4828 32.2797C47.9376 32.767 49.3278 33.4293 50.6229 34.2519C51.5043 34.8092 52.2339 35.5761 52.7466 36.4842C53.1786 37.3454 53.3952 38.2986 53.3779 39.2619C53.4035 40.5324 53.0405 41.7803 52.3375 42.8389C51.5844 43.9126 50.5387 44.7474 49.3249 45.2441C48.0068 45.8232 46.3797 46.1128 44.4437 46.1128C43.2145 46.1242 41.9874 46.0079 40.7822 45.7656C39.8323 45.5914 38.9078 45.3001 38.0297 44.8982C37.9347 44.8494 37.8556 44.7746 37.8017 44.6824C37.7478 44.5903 37.7213 44.4847 37.7254 44.378V39.6975C37.7199 39.6516 37.7272 39.6051 37.7463 39.563C37.7655 39.5209 37.7958 39.4849 37.834 39.4589C37.8712 39.4377 37.914 39.4283 37.9567 39.4322C37.9993 39.436 38.0398 39.4528 38.0726 39.4804C39.1106 40.0923 40.2378 40.5383 41.4135 40.8023C42.449 41.0622 43.5113 41.2003 44.5788 41.2139C45.5889 41.2139 46.333 41.0839 46.8111 40.8238C47.0263 40.7252 47.2083 40.5663 47.3352 40.3665C47.462 40.1666 47.5282 39.9342 47.5257 39.6975C47.5257 39.3213 47.309 38.9597 46.8755 38.6129C46.442 38.2662 45.5598 37.8495 44.2291 37.363C42.8681 36.8894 41.5777 36.2331 40.3933 35.4123C39.5462 34.8238 38.8484 34.0456 38.3554 33.1396C37.9282 32.2857 37.7118 31.3418 37.7241 30.3871C37.7204 29.237 38.036 28.1084 38.6357 27.1271C39.3171 26.0489 40.2958 25.1908 41.4539 24.6562C42.7249 24.0206 44.3141 23.7029 46.2215 23.7029C47.3388 23.6935 48.455 23.7729 49.5598 23.9403C50.3595 24.0431 51.1412 24.2555 51.883 24.5716C51.9418 24.5885 51.996 24.6188 52.0411 24.6602C52.0863 24.7016 52.1212 24.753 52.1431 24.8102C52.1724 24.9158 52.1869 25.025 52.186 25.1347V29.5134C52.1895 29.564 52.1797 29.6146 52.1575 29.6603C52.1354 29.7059 52.1017 29.7449 52.0597 29.7735C52.0013 29.8021 51.937 29.8168 51.8719 29.8163C51.8069 29.8159 51.7428 29.8004 51.6847 29.771Z" fill="#31A8FF"/>
</g>
</g>
<defs>
<clipPath id="clip0_204_2657">
<path d="M0 16C0 7.16344 7.16344 0 16 0H48C56.8366 0 64 7.16344 64 16V48C64 56.8366 56.8366 64 48 64H16C7.16344 64 0 56.8366 0 48V16Z" fill="white"/>
</clipPath>
<clipPath id="clip1_204_2657">
<rect width="64.6149" height="63" fill="white" transform="translate(0 1)"/>
</clipPath>
</defs>
</svg>
