<svg width="64" height="64" viewBox="0 0 64 64" fill="none" xmlns="http://www.w3.org/2000/svg">
<g clip-path="url(#clip0_204_2662)">
<path d="M0 16C0 7.16344 7.16344 0 16 0H48C56.8366 0 64 7.16344 64 16V48C64 56.8366 56.8366 64 48 64H16C7.16344 64 0 56.8366 0 48V16Z" fill="#330000"/>
<g clip-path="url(#clip1_204_2662)">
<path d="M53.1734 1H11.4425C5.12298 1 0 6.12298 0 12.4425V52.5575C0 58.877 5.12298 64 11.4425 64H53.1734C59.4929 64 64.6159 58.877 64.6159 52.5575V12.4425C64.6159 6.12298 59.4929 1 53.1734 1Z" fill="#330000"/>
<path d="M31.3116 38.8081H21.298L19.2614 45.1364C19.2345 45.2524 19.1675 45.3551 19.0723 45.4265C18.9771 45.4979 18.8597 45.5335 18.7409 45.5268H13.6697C13.3799 45.5268 13.2788 45.3676 13.3664 45.0492L22.0358 20.0772C22.12 19.8169 22.2068 19.5221 22.2961 19.1928C22.4086 18.6141 22.4666 18.0262 22.4691 17.4367C22.464 17.4018 22.4658 17.3663 22.4744 17.3321C22.4831 17.2979 22.4984 17.2658 22.5196 17.2376C22.5407 17.2094 22.5672 17.1857 22.5976 17.1678C22.628 17.1499 22.6616 17.1383 22.6965 17.1335C22.7217 17.1297 22.7472 17.1297 22.7723 17.1335H29.6641C29.8663 17.1335 29.9812 17.2055 30.0115 17.3495L39.8508 45.0922C39.938 45.3803 39.8508 45.5255 39.5905 45.5255H33.9558C33.8591 45.5363 33.7618 45.5114 33.682 45.4556C33.6022 45.3998 33.5455 45.3169 33.5225 45.2223L31.3116 38.8081ZM22.8595 33.3427H29.7071C29.5344 32.7641 29.3323 32.1139 29.1006 31.392C28.869 30.6702 28.6235 29.897 28.3641 29.0725L27.5833 26.6025C27.3231 25.7788 27.0847 24.9837 26.8682 24.2173C26.6518 23.4508 26.4551 22.7518 26.2782 22.1201H26.2353C25.9911 23.2904 25.6871 24.4475 25.3244 25.5868C24.9201 26.8881 24.5082 28.2176 24.0888 29.5753C23.6694 30.933 23.2596 32.1888 22.8595 33.3427Z" fill="#FF9A00"/>
<path d="M45.7019 21.7295C45.2598 21.7471 44.8189 21.6713 44.4081 21.5069C43.9973 21.3425 43.6258 21.0934 43.3179 20.7757C43.0108 20.4441 42.7723 20.0551 42.6162 19.6309C42.4601 19.2068 42.3894 18.756 42.4083 18.3045C42.3932 17.8583 42.4723 17.414 42.6404 17.0004C42.8084 16.5868 43.0616 16.2133 43.3836 15.904C43.7024 15.598 44.0787 15.358 44.4907 15.198C44.9026 15.038 45.3422 14.9611 45.784 14.9717C46.8242 14.9717 47.6404 15.2825 48.2325 15.904C48.8331 16.5557 49.1511 17.4189 49.1168 18.3045C49.1351 18.7579 49.0619 19.2103 48.9017 19.6348C48.7416 20.0593 48.4976 20.4473 48.1845 20.7757C47.8586 21.0969 47.4699 21.3475 47.0427 21.5116C46.6155 21.6757 46.1591 21.7499 45.7019 21.7295ZM42.7115 45.092V24.3725C42.7115 24.1123 42.8264 23.9821 43.0576 23.9821H48.3879C48.6178 23.9821 48.734 24.1085 48.734 24.3725V45.092C48.734 45.3801 48.6191 45.5254 48.3879 45.5254H43.1019C42.8416 45.5267 42.7115 45.3814 42.7115 45.092Z" fill="#FF9A00"/>
</g>
</g>
<defs>
<clipPath id="clip0_204_2662">
<path d="M0 16C0 7.16344 7.16344 0 16 0H48C56.8366 0 64 7.16344 64 16V48C64 56.8366 56.8366 64 48 64H16C7.16344 64 0 56.8366 0 48V16Z" fill="white"/>
</clipPath>
<clipPath id="clip1_204_2662">
<rect width="64.6159" height="63" fill="white" transform="translate(0 1)"/>
</clipPath>
</defs>
</svg>
