<svg width="64" height="64" viewBox="0 0 64 64" fill="none" xmlns="http://www.w3.org/2000/svg">
<path d="M0 16C0 7.16344 7.16344 0 16 0H48C56.8366 0 64 7.16344 64 16V48C64 56.8366 56.8366 64 48 64H16C7.16344 64 0 56.8366 0 48V16Z" fill="#470137"/>
<g clip-path="url(#clip0_204_2667)">
<path d="M52.3285 1H11.2611C5.04177 1 0 6.04177 0 12.2611V51.7389C0 57.9582 5.04177 63 11.2611 63H52.3285C58.5478 63 63.5896 57.9582 63.5896 51.7389V12.2611C63.5896 6.04177 58.5478 1 52.3285 1Z" fill="#470137"/>
<path d="M33.4286 17.3052L25.4943 30.4004L33.9833 44.3071C34.0378 44.4044 34.0529 44.519 34.0255 44.6272C33.9969 44.7265 33.9014 44.6645 33.7276 44.6918H27.6721C27.2452 44.6918 26.9474 44.6769 26.7761 44.3927C26.2078 43.2833 25.6391 42.1814 25.0699 41.087C24.5008 39.9925 23.8964 38.8757 23.257 37.7365C22.6183 36.5999 21.9859 35.4479 21.3596 34.2807H21.3162C20.7471 35.419 20.1568 36.5569 19.5455 37.6944C18.9341 38.8318 18.3298 39.9623 17.7325 41.0857C17.1352 42.2083 16.5239 43.3251 15.8985 44.4361C15.7843 44.6918 15.5858 44.7191 15.3016 44.7191H9.45452C9.3416 44.7191 9.27831 44.7637 9.26342 44.6496C9.24723 44.5455 9.26975 44.4391 9.3267 44.3505L17.56 30.8248L9.54014 17.2618C9.45452 17.1489 9.44087 17.0558 9.49795 16.9851C9.52962 16.9493 9.56925 16.9215 9.61365 16.9038C9.65805 16.8861 9.70597 16.8791 9.75357 16.8833H15.7682C15.8995 16.8763 16.0307 16.8979 16.1529 16.9466C16.2546 17.0052 16.3419 17.0857 16.4085 17.1824C16.9197 18.3191 17.4885 19.4565 18.1147 20.5948C18.7409 21.7332 19.3738 22.8537 20.0133 23.9564C20.6519 25.0658 21.2418 26.1892 21.7828 27.3267H21.8262C22.3946 26.1611 22.9703 25.0236 23.5535 23.9142C24.1368 22.8049 24.7341 21.6881 25.3454 20.5638C25.9559 19.4404 26.5458 18.3236 27.1149 17.2134C27.1481 17.108 27.207 17.0125 27.2862 16.9355C27.3914 16.8819 27.5099 16.86 27.6274 16.8722H33.2114C33.2644 16.8622 33.3192 16.8698 33.3675 16.8938C33.4158 16.9178 33.455 16.9569 33.4791 17.0051C33.5032 17.0533 33.511 17.1081 33.5012 17.1612C33.4914 17.2142 33.4646 17.2626 33.4249 17.299L33.4286 17.3052Z" fill="#FF61F6"/>
<path d="M45.6712 45.2452C43.7075 45.2753 41.7619 44.8675 39.9755 44.0515C38.3119 43.2808 36.9209 42.024 35.986 40.4467C35.0198 38.8402 34.5363 36.8282 34.5354 34.411C34.5215 32.4547 35.0218 30.5291 35.986 28.827C36.9803 27.0931 38.4423 25.674 40.2051 24.732C42.0524 23.7087 44.286 23.197 46.9059 23.197C47.0474 23.197 47.2323 23.197 47.4606 23.2181C47.6889 23.2392 47.9569 23.2541 48.2709 23.2814V14.8731C48.2709 14.6746 48.3565 14.5753 48.5265 14.5753H53.9008C53.9602 14.5668 54.0205 14.5821 54.0687 14.6179C54.1168 14.6537 54.1488 14.7071 54.1577 14.7664C54.1602 14.7878 54.1602 14.8095 54.1577 14.8309V40.0409C54.1577 40.5249 54.1788 41.051 54.221 41.6193C54.2632 42.1877 54.2987 42.6997 54.3277 43.1556C54.3329 43.2442 54.3113 43.3323 54.2657 43.4084C54.2201 43.4845 54.1526 43.5452 54.0721 43.5824C52.6854 44.1605 51.2411 44.5893 49.7637 44.8618C48.4136 45.1108 47.044 45.2391 45.6712 45.2452ZM48.2771 39.9565V28.3108C48.0466 28.2491 47.8112 28.2076 47.5735 28.1867C47.2828 28.1573 46.9908 28.1428 46.6987 28.1432C45.6633 28.1331 44.6401 28.3669 43.7118 28.8257C42.8099 29.2757 42.0403 29.9521 41.4782 30.7888C40.895 31.6417 40.6034 32.7647 40.6034 34.1578C40.5826 35.0877 40.7345 36.0134 41.0514 36.8878C41.3093 37.5924 41.7165 38.2328 42.2451 38.7653C42.7521 39.2544 43.3654 39.6196 44.037 39.8324C44.7468 40.0617 45.4886 40.1765 46.2346 40.1725C46.6317 40.1725 47.001 40.1584 47.3427 40.1303C47.6573 40.1047 47.9684 40.0465 48.2709 39.9565H48.2771Z" fill="#FF61F6"/>
</g>
<defs>
<clipPath id="clip0_204_2667">
<rect width="63.5896" height="62" fill="white" transform="translate(0 1)"/>
</clipPath>
</defs>
</svg>
