<svg width="64" height="64" viewBox="0 0 64 64" fill="none" xmlns="http://www.w3.org/2000/svg">
<g clip-path="url(#clip0_204_2708)">
<path d="M0 16C0 7.16344 7.16344 0 16 0H48C56.8366 0 64 7.16344 64 16V48C64 56.8366 56.8366 64 48 64H16C7.16344 64 0 56.8366 0 48V16Z" fill="#00005B"/>
<g clip-path="url(#clip1_204_2708)">
<path d="M11.4418 2H53.1709C54.6739 1.99868 56.1624 2.29372 57.5513 2.86824C58.9402 3.44276 60.2021 4.28549 61.2649 5.34821C62.3278 6.41093 63.1706 7.67278 63.7453 9.06157C64.32 10.4504 64.6152 11.9388 64.614 13.4418V53.5582C64.6152 55.0611 64.32 56.5495 63.7453 57.9382C63.1706 59.327 62.3277 60.5887 61.2649 61.6514C60.202 62.714 58.9401 63.5566 57.5512 64.131C56.1624 64.7053 54.6739 65.0002 53.1709 64.9987H11.4418C9.93901 65.0001 8.45066 64.7051 7.06196 64.1306C5.67326 63.5561 4.41145 62.7135 3.34873 61.6509C2.28601 60.5883 1.44323 59.3266 0.868623 57.9379C0.294013 56.5493 -0.00115664 55.061 3.40608e-06 53.5582V13.4418C-0.00115642 11.9389 0.294004 10.4506 0.868599 9.06186C1.44319 7.67315 2.28595 6.41136 3.34865 5.34865C4.41136 4.28595 5.67315 3.44319 7.06186 2.8686C8.45057 2.294 9.93895 1.99884 11.4418 2Z" fill="#00005B"/>
<path d="M15.3467 46.181V18.4767C15.3467 18.2889 15.4273 18.1806 15.6163 18.1806C16.0737 18.1806 16.5046 18.1806 17.1283 18.1541C17.7747 18.1277 18.4475 18.1277 19.1745 18.0999C19.9015 18.0722 20.6865 18.0735 21.5168 18.0458C22.3471 18.018 23.1547 18.0193 23.9674 18.0193C26.1749 18.0193 27.9993 18.2889 29.5113 18.8534C30.8632 19.3127 32.0958 20.0672 33.1199 21.0621C33.9878 21.9323 34.6582 22.9791 35.0854 24.1314C35.4925 25.2532 35.7018 26.4371 35.7041 27.6304C35.7041 29.9462 35.1657 31.858 34.0888 33.3658C33.0058 34.8716 31.494 36.0159 29.7507 36.6493C27.92 37.3221 25.9002 37.564 23.6928 37.564C23.0464 37.564 22.6155 37.564 22.3471 37.5376C22.0787 37.5111 21.7007 37.5111 21.1892 37.5111V46.1533C21.1952 46.1976 21.1922 46.2427 21.1805 46.2859C21.1687 46.3291 21.1485 46.3695 21.1209 46.4047C21.0933 46.44 21.0589 46.4693 21.0198 46.491C20.9807 46.5128 20.9376 46.5265 20.8931 46.5313H15.6692C15.4538 46.5313 15.3467 46.4229 15.3467 46.181ZM21.2156 23.3754V32.4221C21.5936 32.4485 21.9426 32.4762 22.2652 32.4762H23.6877C24.7406 32.477 25.787 32.3121 26.7885 31.9874C27.6468 31.7354 28.4136 31.24 28.996 30.5611C29.5617 29.887 29.8313 28.9723 29.8313 27.7891C29.8559 26.9485 29.6409 26.1182 29.2114 25.3952C28.761 24.6954 28.0989 24.1577 27.3215 23.8605C26.3106 23.4642 25.2288 23.2811 24.1438 23.3225C23.4445 23.3225 22.8246 23.3225 22.3131 23.349C21.9451 23.3254 21.5758 23.3342 21.2093 23.3754H21.2156Z" fill="#9999FF"/>
<path d="M39.47 24.9392H44.181C44.3088 24.942 44.4323 24.9853 44.5339 25.0627C44.6356 25.1401 44.7101 25.2477 44.7468 25.3701C44.8292 25.5865 44.8834 25.8126 44.9081 26.0429C44.9622 26.3113 45.0164 26.6074 45.0429 26.877C45.0693 27.1731 45.097 27.4969 45.097 27.8459C45.9056 26.9027 46.8822 26.1179 47.9773 25.5314C49.2286 24.8355 50.638 24.4736 52.0697 24.4805C52.1141 24.4746 52.1592 24.4775 52.2024 24.4893C52.2456 24.501 52.286 24.5213 52.3212 24.5488C52.3564 24.5764 52.3858 24.6108 52.4075 24.6499C52.4292 24.6891 52.4429 24.7321 52.4477 24.7766V30.1353C52.4477 30.3508 52.3129 30.4314 52.0168 30.4314C51.0401 30.3987 50.0631 30.4889 49.1088 30.6998C48.3317 30.8612 47.5739 31.1049 46.8484 31.4268C46.3275 31.662 45.8602 32.0011 45.475 32.4234V46.1572C45.475 46.4255 45.3667 46.5351 45.1248 46.5351H39.8152C39.7657 46.5424 39.7152 46.5398 39.6667 46.5274C39.6183 46.515 39.5727 46.4932 39.5327 46.463C39.4928 46.4329 39.4592 46.3951 39.4339 46.3519C39.4087 46.3087 39.3922 46.2609 39.3856 46.2113V31.1849C39.3856 30.5385 39.3856 29.8657 39.3579 29.1689C39.3301 28.4721 39.3314 27.7691 39.3037 27.0698C39.3037 26.4499 39.2508 25.8577 39.1966 25.239C39.1834 25.1748 39.1957 25.1079 39.231 25.0526C39.2663 24.9974 39.3217 24.958 39.3856 24.943C39.3856 24.9152 39.4385 24.9152 39.4662 24.943L39.47 24.9392Z" fill="#9999FF"/>
</g>
</g>
<defs>
<clipPath id="clip0_204_2708">
<path d="M0 16C0 7.16344 7.16344 0 16 0H48C56.8366 0 64 7.16344 64 16V48C64 56.8366 56.8366 64 48 64H16C7.16344 64 0 56.8366 0 48V16Z" fill="white"/>
</clipPath>
<clipPath id="clip1_204_2708">
<rect width="64.6166" height="63" fill="white" transform="translate(0 2)"/>
</clipPath>
</defs>
</svg>
