<svg width="64" height="64" viewBox="0 0 64 64" fill="none" xmlns="http://www.w3.org/2000/svg">
<path d="M0 14.6248C0 6.54786 6.54786 0 14.6248 0H49.3748C57.4521 0 64 6.54786 64 14.6248V49.3748C64 57.4521 57.4521 64 49.3748 64H14.6248C6.54786 64 0 57.4521 0 49.3748V14.6248Z" fill="black"/>
<path d="M0.5 14.6248C0.5 6.824 6.824 0.5 14.6248 0.5H49.3748C57.176 0.5 63.5 6.82401 63.5 14.6248V49.3748C63.5 57.176 57.176 63.5 49.3748 63.5H14.6248C6.82401 63.5 0.5 57.176 0.5 49.3748V14.6248Z" stroke="url(#paint0_linear_204_2644)" stroke-opacity="0.15"/>
<path d="M17 47.5C17 43.3579 20.358 40 24.5002 40H32V47.5C32 51.6421 28.6424 55 24.5002 55C20.358 55 17 51.6421 17 47.5Z" fill="#24CB71"/>
<path d="M32 10V25H39.5C43.6421 25 47 21.6424 47 17.5002C47 13.358 43.6421 10 39.5 10H32Z" fill="#FF7237"/>
<path d="M39.5 40C43.6421 40 47 36.6421 47 32.5C47 28.3579 43.6421 25 39.5 25C35.3579 25 32 28.3579 32 32.5C32 36.6421 35.3579 40 39.5 40Z" fill="#00B6FF"/>
<path d="M17 17.5C17 21.6421 20.358 25 24.5002 25H32V10H24.5002C20.358 10 17 13.3579 17 17.5Z" fill="#FF3737"/>
<path d="M17 32.4998C17 36.642 20.358 40 24.5002 40H32V25H24.5002C20.358 25 17 28.3576 17 32.4998Z" fill="#874FFF"/>
<defs>
<linearGradient id="paint0_linear_204_2644" x1="32" y1="0" x2="32" y2="64" gradientUnits="userSpaceOnUse">
<stop stop-color="white"/>
<stop offset="1" stop-color="#999999"/>
</linearGradient>
</defs>
</svg>
