<svg width="64" height="64" viewBox="0 0 64 64" fill="none" xmlns="http://www.w3.org/2000/svg">
<g clip-path="url(#clip0_204_2683)">
<path d="M0 16C0 7.16344 7.16344 0 16 0H48C56.8366 0 64 7.16344 64 16V48C64 56.8366 56.8366 64 48 64H16C7.16344 64 0 56.8366 0 48V16Z" fill="#1E3101"/>
<g clip-path="url(#clip1_204_2683)">
<path d="M11.4423 1H53.1767C56.2113 1 59.1217 2.20552 61.2676 4.35137C63.4134 6.49721 64.6189 9.4076 64.6189 12.4423V52.5577C64.6189 55.5924 63.4134 58.5028 61.2676 60.6486C59.1217 62.7945 56.2113 64 53.1767 64H11.4423C8.4076 64 5.49721 62.7945 3.35137 60.6486C1.20552 58.5028 0 55.5924 0 52.5577L0 12.4423C0 9.4076 1.20552 6.49721 3.35137 4.35137C5.49721 2.20552 8.4076 1 11.4423 1Z" fill="#1E3101"/>
<path d="M13.9766 45.1791V17.4806C13.9766 17.2789 14.0623 17.178 14.2363 17.178C14.6978 17.178 15.2467 17.1709 15.883 17.1566C16.5193 17.1423 17.2056 17.1276 17.942 17.1124L20.2834 17.0696C21.1071 17.0544 21.9233 17.0469 22.732 17.0469C24.9284 17.0469 26.7776 17.3217 28.2797 17.8715C29.636 18.3293 30.8728 19.0845 31.8997 20.0818C32.7702 20.946 33.443 21.9887 33.8716 23.1381C34.2775 24.2563 34.4832 25.4373 34.4794 26.6269C34.4794 28.9393 33.9448 30.8465 32.8756 32.3486C31.7993 33.8584 30.2865 35.0024 28.5407 35.6269C26.5951 36.3268 24.5397 36.6719 22.4722 36.6456C21.8359 36.6456 21.3879 36.6381 21.1281 36.6229C20.8684 36.6091 20.4775 36.6015 19.9581 36.6015V45.1413C19.9707 45.2317 19.947 45.3234 19.8922 45.3964C19.8374 45.4694 19.7559 45.5178 19.6656 45.5309C19.6334 45.5359 19.6006 45.5359 19.5685 45.5309H14.2792C14.0774 45.5259 13.9766 45.4111 13.9766 45.1791ZM19.9581 22.379V31.3526C20.333 31.382 20.6797 31.3963 20.9983 31.3954H22.4281C23.4773 31.4105 24.5226 31.2643 25.5273 30.9617C26.3861 30.7067 27.1537 30.2104 27.7388 29.5319C28.302 28.8678 28.5836 27.9432 28.5836 26.758C28.6054 25.9197 28.3866 25.0928 27.9532 24.375C27.4958 23.6798 26.8354 23.1423 26.0619 22.8355C25.0544 22.4445 23.9785 22.2605 22.8984 22.2946C22.2049 22.2946 21.5909 22.3017 21.0563 22.316C20.5217 22.3303 20.1531 22.3517 19.9505 22.3803L19.9581 22.379Z" fill="#99E83F"/>
<path d="M50.5602 41.2352V44.7896C50.5602 45.1073 50.4447 45.2952 50.2135 45.3532C49.6444 45.531 49.0656 45.6758 48.4798 45.7869C47.7932 45.9092 47.0967 45.967 46.3994 45.9596C44.5207 45.9596 43.0472 45.4683 41.9788 44.4857C40.9105 43.5031 40.3759 41.9283 40.375 39.7613V29.0112H37.8155C37.5847 29.0112 37.4688 28.8851 37.4688 28.6216V24.3258C37.4688 24.0951 37.5948 23.9791 37.8596 23.9791H40.4166C40.4452 23.4882 40.4814 22.9175 40.5251 22.2669C40.5692 21.6175 40.6259 20.9669 40.6991 20.3163C40.7722 19.6657 40.8352 19.1387 40.8932 18.7352C40.9209 18.649 40.9636 18.5683 41.0193 18.4969C41.0755 18.4263 41.1508 18.3734 41.2362 18.3443L46.3994 17.6988C46.4778 17.6755 46.5618 17.6795 46.6377 17.7101C46.6957 17.7391 46.7033 17.8148 46.7033 17.9623C46.6453 18.6272 46.6032 19.5304 46.5772 20.6719C46.5511 21.8134 46.5221 22.9183 46.4902 23.9867H50.5249C50.6989 23.9867 50.7859 24.1027 50.7859 24.3334V28.7124C50.7962 28.7811 50.7793 28.8511 50.7388 28.9076C50.6983 28.9641 50.6375 29.0026 50.5691 29.015H46.4423V38.2911C46.4423 39.2746 46.6104 39.9756 46.9466 40.3942C47.2828 40.8128 47.8969 41.023 48.7887 41.0246C49.0485 41.0246 49.2931 41.0183 49.5263 41.0032C49.7596 40.9881 49.9878 40.9666 50.2198 40.9376C50.2586 40.9233 50.3001 40.9178 50.3414 40.9215C50.3826 40.9252 50.4225 40.938 50.4581 40.9591C50.4968 40.9929 50.5265 41.0359 50.5443 41.0841C50.5622 41.1324 50.5676 41.1843 50.5602 41.2352Z" fill="#99E83F"/>
</g>
</g>
<defs>
<clipPath id="clip0_204_2683">
<path d="M0 16C0 7.16344 7.16344 0 16 0H48C56.8366 0 64 7.16344 64 16V48C64 56.8366 56.8366 64 48 64H16C7.16344 64 0 56.8366 0 48V16Z" fill="white"/>
</clipPath>
<clipPath id="clip1_204_2683">
<rect width="64.6152" height="63" fill="white" transform="translate(0 1)"/>
</clipPath>
</defs>
</svg>
