<svg width="64" height="64" viewBox="0 0 64 64" fill="none" xmlns="http://www.w3.org/2000/svg">
<g clip-path="url(#clip0_204_2672)">
<path d="M0 16C0 7.16344 7.16344 0 16 0H48C56.8366 0 64 7.16344 64 16V48C64 56.8366 56.8366 64 48 64H16C7.16344 64 0 56.8366 0 48V16Z" fill="#1E3101"/>
<g clip-path="url(#clip1_204_2672)">
<path d="M11.4289 2H52.8745C55.9056 2 58.8126 3.20411 60.9559 5.34745C63.0993 7.49079 64.3034 10.3978 64.3034 13.4289V52.5711C64.3034 55.6022 63.0993 58.5092 60.9559 60.6525C58.8126 62.7959 55.9056 64 52.8745 64H11.4289C8.39778 64 5.49079 62.7959 3.34745 60.6525C1.20411 58.5092 0 55.6022 0 52.5711L0 13.4289C0 10.3978 1.20411 7.49079 3.34745 5.34745C5.49079 3.20411 8.39778 2 11.4289 2Z" fill="#1E3101"/>
<path d="M19.8887 45.887C18.4022 45.9011 16.9183 45.7623 15.4603 45.4725C14.3084 45.2526 13.1874 44.8937 12.122 44.4038C11.998 44.3277 11.899 44.217 11.8371 44.0853C11.7753 43.9537 11.7534 43.8068 11.7741 43.6628V38.4708C11.7682 38.4247 11.7751 38.3779 11.7942 38.3356C11.8133 38.2932 11.8437 38.257 11.8821 38.2309C11.9272 38.2094 11.9771 38.2001 12.0269 38.2038C12.0767 38.2075 12.1246 38.2242 12.166 38.2522C13.3724 39.0023 14.6801 39.5754 16.0493 39.954C17.3571 40.3239 18.7091 40.5144 20.0683 40.5204C21.7261 40.5204 22.9113 40.2659 23.6238 39.7568C23.9473 39.5561 24.2149 39.2769 24.4018 38.9452C24.5886 38.6134 24.6886 38.2399 24.6926 37.8591C24.7002 37.3922 24.5794 36.9321 24.3434 36.5291C24.0284 36.0568 23.6112 35.6615 23.1227 35.3724C22.3609 34.9062 21.5574 34.5118 20.7226 34.1943L18.5411 33.2788C17.0395 32.6837 15.6354 31.8675 14.3751 30.8573C13.4622 30.1227 12.7491 29.1698 12.3016 28.0868C11.9185 27.069 11.7265 25.9892 11.7352 24.9018C11.707 23.3592 12.135 21.8427 12.9655 20.5426C13.796 19.2424 14.992 18.2165 16.4035 17.5935C18.2157 16.7972 20.1834 16.4169 22.1619 16.4808C23.4685 16.4746 24.7738 16.5624 26.0678 16.7433C27.0738 16.8584 28.054 17.1385 28.969 17.5722C29.0682 17.6281 29.1495 17.711 29.2035 17.8113C29.2575 17.9115 29.282 18.025 29.2742 18.1386V22.9463C29.2785 23.0101 29.2747 23.0743 29.2629 23.1372C29.2542 23.1754 29.235 23.2105 29.2075 23.2384C29.18 23.2664 29.1453 23.2861 29.1072 23.2954C29.0091 23.3055 28.9108 23.2781 28.8321 23.2188L28.5319 23.0706C28.3302 22.9752 28.1263 22.8847 27.9203 22.7993C27.5078 22.6306 27.0864 22.4843 26.6581 22.361C26.383 22.2819 26.1067 22.2128 25.8267 22.1538C24.638 21.8889 23.4236 21.757 22.2058 21.7607C21.488 21.748 20.7712 21.8214 20.0708 21.9792C19.5737 22.0909 19.0956 22.2745 18.6516 22.5243C18.3066 22.7172 18.0232 23.0037 17.834 23.3507C17.6643 23.6658 17.5742 24.0176 17.5715 24.3755C17.565 24.8215 17.7029 25.2577 17.9646 25.6189C18.3233 26.0667 18.7683 26.4378 19.2733 26.7103C20.0956 27.1823 20.9415 27.6119 21.8077 27.9976L23.4216 28.608C25.035 29.2203 26.5495 30.0666 27.9165 31.1198C28.8944 31.8817 29.6727 32.8695 30.1847 33.9984C30.6258 35.0557 30.8488 36.1911 30.8403 37.3367C30.872 38.9494 30.3904 40.5305 29.4651 41.8517C28.4981 43.1866 27.175 44.2224 25.6471 44.8408C23.8184 45.5765 21.8592 45.9325 19.8887 45.887Z" fill="#99E83F"/>
<path d="M39.2161 40.0847L45.4115 40.3899C47.1307 40.4004 48.8327 40.7336 50.429 41.372C51.5371 41.8197 52.4813 42.5965 53.1342 43.5975C53.6934 44.5404 53.9804 45.6199 53.9631 46.716C53.9615 48.2032 53.4624 49.6471 52.5452 50.8179C51.5061 52.139 50.1366 53.1623 48.5752 53.7844C46.6404 54.5546 44.5697 54.9255 42.4877 54.8745C40.4465 54.941 38.413 54.5919 36.5108 53.8484C35.1429 53.3206 33.9494 52.4215 33.0645 51.2524C32.3892 50.3578 32.0079 49.2757 31.9731 48.1553C31.9881 47.6296 32.1225 47.1142 32.3662 46.6482C32.7031 46.0017 33.1209 45.4007 33.6096 44.8597C34.3015 44.0833 35.045 43.3545 35.8351 42.6782C36.9144 41.7533 38.0431 40.8875 39.2161 40.0847ZM42.0092 37.9911C40.9149 37.9909 39.8243 37.8645 38.7589 37.6143C37.7216 37.378 36.7325 36.965 35.8351 36.3936C34.9544 35.8337 34.2271 35.0632 33.7189 34.1517C33.1705 33.1188 32.9 31.9611 32.9339 30.7921C32.9214 29.4675 33.2841 28.1665 33.9801 27.0394C34.7168 25.8705 35.768 24.9329 37.0132 24.3342C38.5187 23.6253 40.1701 23.2811 41.8334 23.3294C42.6196 23.3294 43.3832 23.3658 44.1242 23.4387C44.8652 23.5115 45.4836 23.5915 45.9792 23.6786C46.1814 23.7075 46.3711 23.7301 46.5456 23.7439C46.7202 23.7577 46.8797 23.7665 47.0254 23.7665H52.9998C53.1732 23.7665 53.2611 23.8682 53.2611 24.0717V28.1296C53.2775 28.1938 53.2679 28.262 53.2342 28.3192C53.2006 28.3764 53.1457 28.4179 53.0815 28.4348C53.0402 28.4448 52.9971 28.4448 52.9559 28.4348C52.6645 28.4348 52.2023 28.4122 51.5819 28.3695C50.9615 28.3268 50.4101 28.274 49.9492 28.2162C50.4058 29.0757 50.6313 30.0391 50.6035 31.0119C50.6574 32.3987 50.2676 33.7665 49.4908 34.9166C48.7164 35.9745 47.6462 36.7794 46.415 37.23C45.0065 37.7553 43.5124 38.0134 42.0092 37.9911ZM41.3976 40.6524L36.7733 43.531C36.2166 42.9616 35.779 42.287 35.486 41.5466C35.2066 40.8317 35.0783 40.0667 35.1092 39.2998C35.1357 38.6752 35.2533 38.0579 35.4583 37.4674C35.6576 36.8964 35.9551 36.3647 36.3375 35.8962L40.6554 37.6419C40.5598 37.8483 40.5007 38.0697 40.4808 38.2963C40.4519 38.5571 40.4519 38.8204 40.4808 39.0812C40.4798 39.3681 40.5632 39.649 40.7207 39.8888C40.9128 40.1712 41.1403 40.4278 41.3976 40.6524ZM48.422 47.6328C48.4403 47.3878 48.3978 47.142 48.298 46.9174C48.1983 46.6927 48.0446 46.4963 47.8506 46.3455C47.3768 46.0314 46.8409 45.8232 46.2794 45.7351C45.545 45.5968 44.8009 45.5166 44.0539 45.4952L39.255 45.2767C38.7684 45.5887 38.3584 46.0064 38.0556 46.4987C37.8109 46.8314 37.6534 47.22 37.5972 47.6291C37.622 48.1238 37.8323 48.5911 38.1862 48.9377C38.6898 49.4415 39.3129 49.8092 39.9973 50.0065C40.9282 50.3008 41.901 50.4408 42.8771 50.421C43.952 50.4513 45.0254 50.3192 46.0609 50.0291C46.7361 49.8497 47.353 49.4974 47.8506 49.0068C48.209 48.6382 48.4133 48.1469 48.422 47.6328ZM44.9318 30.7921C44.9405 30.2507 44.829 29.7141 44.6052 29.221C44.3884 28.7584 44.0386 28.371 43.6005 28.1082C43.0755 27.8134 42.479 27.6699 41.8774 27.6938C41.4694 27.6695 41.0606 27.7263 40.6747 27.8611C40.2888 27.9958 39.9335 28.2057 39.6293 28.4787C39.3468 28.7817 39.1295 29.1395 38.9908 29.5298C38.8521 29.9202 38.795 30.3349 38.823 30.7482C38.8134 31.5094 39.0853 32.2474 39.5866 32.8204C39.8772 33.1313 40.2339 33.373 40.6304 33.5278C41.0268 33.6825 41.453 33.7464 41.8774 33.7147C42.6933 33.7565 43.4927 33.4744 44.1016 32.9297C44.3825 32.6518 44.6016 32.3178 44.7446 31.9494C44.8876 31.5811 44.9514 31.1868 44.9318 30.7921Z" fill="#99E83F"/>
</g>
</g>
<defs>
<clipPath id="clip0_204_2672">
<path d="M0 16C0 7.16344 7.16344 0 16 0H48C56.8366 0 64 7.16344 64 16V48C64 56.8366 56.8366 64 48 64H16C7.16344 64 0 56.8366 0 48V16Z" fill="white"/>
</clipPath>
<clipPath id="clip1_204_2672">
<rect width="64.2958" height="62" fill="white" transform="translate(0 2)"/>
</clipPath>
</defs>
</svg>
