<svg width="314" height="128" viewBox="0 0 314 128" fill="none" xmlns="http://www.w3.org/2000/svg">
<path d="M62.0981 61.3333C62.0981 64.0889 61.8784 66.7111 61.4389 69.2H18.5899C19.5567 73.0222 21.3586 76 23.9955 78.1333C26.6323 80.1778 30.1042 81.2 34.4111 81.2C40.7395 81.2 46.1891 78.7556 50.7596 73.8667L60.1205 84.4C56.6926 88.3111 52.6054 91.3333 47.8591 93.4667C43.1127 95.5111 38.0587 96.5333 32.6971 96.5333C26.3686 96.5333 20.6994 95.1556 15.6893 92.4C10.7672 89.6444 6.89979 85.8222 4.08714 80.9333C1.36238 76.0444 0 70.4889 0 64.2667C0 58.0444 1.36238 52.4444 4.08714 47.4667C6.8119 42.4889 10.5475 38.5778 15.2938 35.7333C20.1281 32.8889 25.5776 31.4667 31.6424 31.4667C37.2677 31.4667 42.4096 32.7556 47.068 35.3333C51.7265 37.9111 55.3741 41.4667 58.011 46C60.7358 50.5333 62.0981 55.6444 62.0981 61.3333ZM31.3787 45.3333C28.0387 45.3333 25.226 46.3111 22.9407 48.2667C20.7433 50.2222 19.2052 53.0667 18.3262 56.8H43.9038C43.2006 53.2444 41.7943 50.4444 39.6848 48.4C37.5753 46.3556 34.8066 45.3333 31.3787 45.3333Z" fill="white"/>
<path d="M146.498 31.4667C150.981 31.4667 155.024 32.5778 158.628 34.8C162.232 36.9333 165.044 39.9556 167.066 43.8667C169.088 47.6889 170.098 51.9556 170.098 56.6667V94.6667H152.431V61.0667C152.431 56.9778 151.464 53.7333 149.531 51.3333C147.597 48.9333 144.96 47.7333 141.62 47.7333C138.368 47.7333 135.731 48.9778 133.71 51.4667C131.688 53.9556 130.677 57.2889 130.677 61.4667V94.6667H113.01V61.0667C113.01 56.9778 112.043 53.7333 110.11 51.3333C108.176 48.9333 105.539 47.7333 102.199 47.7333C98.9469 47.7333 96.3101 48.9778 94.2885 51.4667C92.2669 53.9556 91.2561 57.2889 91.2561 61.4667V94.6667H73.5891V33.3333H90.5969V40.6667C95.0795 34.5333 100.837 31.4667 107.868 31.4667C111.912 31.4667 115.559 32.4444 118.811 34.4C122.063 36.2667 124.7 38.8889 126.722 42.2667C129.183 38.8 132.084 36.1333 135.424 34.2667C138.851 32.4 142.543 31.4667 146.498 31.4667Z" fill="white"/>
<path d="M219.924 31.4667C225.285 31.4667 230.164 32.8889 234.558 35.7333C238.953 38.5778 242.425 42.4889 244.974 47.4667C247.611 52.4444 248.929 57.9556 248.929 64C248.929 70.0444 247.611 75.5556 244.974 80.5333C242.425 85.4222 238.909 89.3333 234.426 92.2667C229.944 95.1111 224.978 96.5333 219.528 96.5333C215.837 96.5333 212.409 95.8667 209.244 94.5333C206.08 93.1111 203.311 91.1556 200.938 88.6667V94.6667H183.931V0H201.598V39.2C206.52 34.0444 212.628 31.4667 219.924 31.4667ZM215.968 79.8667C220.275 79.8667 223.835 78.4 226.648 75.4667C229.548 72.4445 230.999 68.6222 230.999 64C230.999 59.3778 229.548 55.6 226.648 52.6667C223.835 49.6444 220.275 48.1333 215.968 48.1333C211.574 48.1333 207.97 49.6444 205.157 52.6667C202.345 55.6 200.938 59.3778 200.938 64C200.938 68.6222 202.345 72.4445 205.157 75.4667C207.97 78.4 211.574 79.8667 215.968 79.8667Z" fill="white"/>
<path d="M283.149 72.1333L295.938 33.3333H314L279.193 128H261.131L273.129 95.8667L250.847 33.3333H269.833L283.149 72.1333Z" fill="white"/>
</svg>
