<svg width="32" height="32" viewBox="0 0 32 32" fill="none" xmlns="http://www.w3.org/2000/svg">
<path d="M9.25326 6.66702C9.2529 7.37427 8.97161 8.0524 8.47126 8.55225C7.97092 9.0521 7.2925 9.33271 6.58526 9.33236C5.87801 9.332 5.19987 9.05071 4.70003 8.55037C4.20018 8.05002 3.91957 7.3716 3.91992 6.66436C3.92028 5.95711 4.20157 5.27898 4.70191 4.77913C5.20226 4.27928 5.88068 3.99867 6.58792 3.99902C7.29517 3.99938 7.9733 4.28067 8.47315 4.78102C8.973 5.28136 9.25361 5.95978 9.25326 6.66702ZM9.33326 11.307H3.99992V28.0004H9.33326V11.307ZM17.7599 11.307H12.4533V28.0004H17.7066V19.2404C17.7066 14.3604 24.0666 13.907 24.0666 19.2404V28.0004H29.3333V17.427C29.3333 9.20036 19.9199 9.50702 17.7066 13.547L17.7599 11.307Z" fill="white"/>
</svg>
