<svg width="32" height="32" viewBox="0 0 32 32" fill="none" xmlns="http://www.w3.org/2000/svg">
<path d="M16.3252 5.33301C17.0372 5.33701 18.8185 5.35434 20.7118 5.43034L21.3838 5.45967C23.2892 5.54901 25.1932 5.70367 26.1385 5.96634C27.3985 6.32101 28.3878 7.35301 28.7225 8.66234C29.2558 10.7423 29.3225 14.7983 29.3305 15.781L29.3318 15.9837V16.2157C29.3225 17.1983 29.2558 21.2557 28.7225 23.3343C28.3838 24.6477 27.3932 25.681 26.1385 26.0303C25.1932 26.293 23.2892 26.4477 21.3838 26.537L20.7118 26.5677C18.8185 26.6423 17.0372 26.661 16.3252 26.6637L16.0118 26.665H15.6718C14.1652 26.6557 7.86384 26.5877 5.8585 26.0303C4.59984 25.6757 3.60917 24.6437 3.2745 23.3343C2.74117 21.2543 2.6745 17.1983 2.6665 16.2157V15.781C2.6745 14.7983 2.74117 10.741 3.2745 8.66234C3.61317 7.34901 4.60384 6.31567 5.85984 5.96767C7.86384 5.40901 14.1665 5.34101 15.6732 5.33301H16.3252ZM13.3318 11.333V20.6663L21.3318 15.9997L13.3318 11.333Z" fill="white"/>
</svg>
