<svg width="32" height="32" viewBox="0 0 32 32" fill="none" xmlns="http://www.w3.org/2000/svg">
<path d="M16.0013 2.66699C8.63464 2.66699 2.66797 8.63366 2.66797 16.0003C2.66556 18.7994 3.54498 21.5281 5.18138 23.799C6.81777 26.0699 9.12798 27.7676 11.784 28.651C12.4506 28.767 12.7013 28.367 12.7013 28.0163C12.7013 27.7003 12.684 26.651 12.684 25.5337C9.33464 26.151 8.46797 24.7177 8.20131 23.967C8.05064 23.583 7.40131 22.4003 6.83464 22.083C6.36797 21.8337 5.70131 21.2163 6.81731 21.2003C7.86797 21.183 8.61731 22.167 8.86797 22.567C10.068 24.583 11.984 24.0163 12.7506 23.667C12.868 22.8003 13.2173 22.2177 13.6013 21.8843C10.6346 21.551 7.53464 20.4003 7.53464 15.3003C7.53464 13.8497 8.05064 12.651 8.90131 11.7177C8.76797 11.3843 8.30131 10.0177 9.03464 8.18433C9.03464 8.18433 10.1506 7.83366 12.7013 9.54966C13.7869 9.24918 14.9083 9.09801 16.0346 9.10033C17.168 9.10033 18.3013 9.24966 19.368 9.54966C21.9186 7.81633 23.0346 8.18433 23.0346 8.18433C23.768 10.0177 23.3013 11.3843 23.168 11.7177C24.0173 12.651 24.5346 13.8337 24.5346 15.3003C24.5346 20.4177 21.4186 21.551 18.452 21.8843C18.9346 22.3003 19.352 23.1003 19.352 24.351C19.352 26.1337 19.3346 27.567 19.3346 28.0177C19.3346 28.367 19.5853 28.783 20.252 28.6497C22.898 27.7551 25.1971 26.0538 26.8261 23.7848C28.455 21.5159 29.3318 18.7935 29.3333 16.0003C29.3333 8.63366 23.3666 2.66699 16 2.66699" fill="white"/>
</svg>
